<?xml version="1.0" encoding="iso-8859-1"?>
<!-- Generator: Adobe Illustrator 12.0.0, SVG Export Plug-In . SVG Version: 6.00 Build 51448)  -->
<!DOCTYPE svg PUBLIC "-//W3C//DTD SVG 1.1//EN" "http://www.w3.org/Graphics/SVG/1.1/DTD/svg11.dtd" [
	<!ENTITY ns_svg "http://www.w3.org/2000/svg">
	<!ENTITY ns_xlink "http://www.w3.org/1999/xlink">
]>
<svg  version="1.1" id="&#x30EC;&#x30A4;&#x30E4;&#x30FC;_1" xmlns="&ns_svg;" xmlns:xlink="&ns_xlink;" width="100" height="100"
	 viewBox="0 0 100 100" style="overflow:visible;enable-background:new 0 0 100 100;" xml:space="preserve">
<path style="fill:#00ABF1;" d="M50,0C22.386,0,0,22.386,0,50c0,27.613,22.386,50,50,50c27.613,0,50-22.387,50-50
	C100,22.386,77.613,0,50,0z M70.893,39.988c-0.965,1.189-2.074,2.234-3.306,3.141c-0.104,0.076-0.153,0.149-0.151,0.284
	c0.051,1.35-0.002,2.695-0.17,4.036c-0.35,2.824-1.138,5.52-2.343,8.092c-1.245,2.656-2.868,5.061-4.913,7.167
	c-3.461,3.582-7.634,5.894-12.492,6.961c-1.665,0.366-3.357,0.558-5.064,0.603c-5.242,0.154-10.086-1.146-14.547-3.904
	c-0.055-0.029-0.113-0.071-0.212-0.135c3.172,0.343,6.189-0.066,9.093-1.256c1.542-0.629,2.968-1.459,4.322-2.519
	c-4.723-0.168-7.675-3.554-8.458-6.312c1.316,0.252,2.61,0.199,3.898-0.119c0.033-0.002,0.065-0.03,0.128-0.059
	c-2.557-0.595-4.533-1.964-5.903-4.17c-0.909-1.467-1.345-3.072-1.332-4.834c1.276,0.685,2.612,1.062,4.045,1.102
	c-1.924-1.384-3.212-3.197-3.741-5.513c-0.524-2.312-0.187-4.51,0.975-6.585c4.921,5.797,11.153,8.976,18.751,9.5
	c-0.054-0.359-0.11-0.676-0.148-0.995c-0.253-2.138,0.173-4.134,1.329-5.944c1.445-2.269,3.51-3.676,6.166-4.109
	c3.054-0.501,5.724,0.371,7.955,2.534c0.15,0.145,0.275,0.191,0.486,0.145c1.869-0.406,3.629-1.079,5.285-2.033
	c0.041-0.024,0.082-0.044,0.123-0.061c0.01-0.009,0.02-0.007,0.061-0.007c-0.717,2.114-2.026,3.745-3.893,4.948
	c1.762-0.193,3.439-0.663,5.063-1.364c0.014,0.014,0.022,0.029,0.039,0.042C71.589,39.082,71.25,39.545,70.893,39.988z"/>
</svg>
